HIERARCHY
ROOT Hips
{
	OFFSET 0.0000 0.0000 0.0000
	CHANNELS 6 Xposition Yposition Zposition Zrotation Xrotation Yrotation
	JOINT Ab
	{
		OFFSET -0.0000 8.0846 -0.0000
		CHANNELS 3 Zrotation Xrotation Yrotation
		JOINT Chest
		{
			OFFSET -0.0000 25.0068 -0.0000
			CHANNELS 3 Zrotation Xrotation Yrotation
			JOINT Neck
			{
				OFFSET -0.0000 25.0068 0.0000
				CHANNELS 3 Zrotation Xrotation Yrotation
				JOINT Head
				{
					OFFSET -0.0000 10.7556 0.0000
					CHANNELS 3 Zrotation Xrotation Yrotation
					End Site
					{
						OFFSET -0.0000 16.6222 0.0000
					}
				}
			}
			JOINT LeftCollar
			{
				OFFSET -0.0000 25.0068 0.0000
				CHANNELS 3 Zrotation Xrotation Yrotation
				JOINT LeftShoulder
				{
					OFFSET 19.5556 -0.0000 0.0000
					CHANNELS 3 Zrotation Xrotation Yrotation
					JOINT LeftElbow
					{
						OFFSET 27.1828 0.0000 0.0000
						CHANNELS 3 Zrotation Xrotation Yrotation
						JOINT LeftWrist
						{
							OFFSET 23.3157 0.0000 0.0000
							CHANNELS 3 Zrotation Xrotation Yrotation
							End Site
							{
								OFFSET 0.0000 -14.6667 0.0000
							}
						}
					}
				}
			}
			JOINT RightCollar
			{
				OFFSET -0.0000 25.0068 0.0000
				CHANNELS 3 Zrotation Xrotation Yrotation
				JOINT RightShoulder
				{
					OFFSET -19.5556 0.0000 0.0000
					CHANNELS 3 Zrotation Xrotation Yrotation
					JOINT RightElbow
					{
						OFFSET -27.1828 0.0000 0.0000
						CHANNELS 3 Zrotation Xrotation Yrotation
						JOINT RightWrist
						{
							OFFSET -23.3157 0.0000 0.0000
							CHANNELS 3 Zrotation Xrotation Yrotation
							End Site
							{
								OFFSET -0.0000 -14.6667 0.0000
							}
						}
					}
				}
			}
		}
	}
	JOINT LeftHip
	{
		OFFSET 11.7333 0.0000 0.0000
		CHANNELS 3 Zrotation Xrotation Yrotation
		JOINT LeftKnee
		{
			OFFSET -0.0000 -40.8688 0.0000
			CHANNELS 3 Zrotation Xrotation Yrotation
			JOINT LeftAnkle
			{
				OFFSET -0.0000 -44.4337 0.0000
				CHANNELS 3 Zrotation Xrotation Yrotation
				End Site
				{
					OFFSET -0.0000 -4.8889 16.6222
				}
			}
		}
	}
	JOINT RightHip
	{
		OFFSET -11.7333 0.0000 0.0000
		CHANNELS 3 Zrotation Xrotation Yrotation
		JOINT RightKnee
		{
			OFFSET -0.0000 -40.8688 0.0000
			CHANNELS 3 Zrotation Xrotation Yrotation
			JOINT RightAnkle
			{
				OFFSET -0.0000 -44.4337 0.0000
				CHANNELS 3 Zrotation Xrotation Yrotation
				End Site
				{
					OFFSET -0.0000 -4.8889 16.6222
				}
			}
		}
	}
}
MOTION
Frames: 15
Frame Time: 0.010000
-3.2330 88.5739 188.8722 2.3692 0.1279 175.3013 2.0490 359.3767 358.0265 358.9469 10.3389 358.1121 359.9216 344.0586 1.2268 3.8103 10.8257 0.8703 338.8435 358.4707 8.1134 300.1007 29.2317 356.9320 14.9592 354.8290 322.1490 83.4705 0.8773 339.9581 22.5204 358.9791 354.8407 59.5192 44.6047 6.4419 338.2868 354.1986 29.5875 276.1465 352.7844 18.1933 2.6169 358.9183 357.1701 359.2398 9.9267 357.2015 357.3775 351.8256 22.2765 0.5735 352.2904 0.2322 358.6560 19.9828 9.4777 357.0314 344.3741 336.9109 
-3.2388 88.5754 188.8583 2.3633 0.1263 175.3059 2.0384 359.3972 358.0283 358.9513 10.3235 358.1132 359.8499 344.0398 1.1941 3.8757 10.8699 0.8392 338.8338 358.4901 8.1487 300.1218 29.2009 356.9245 14.9108 354.8577 322.1831 83.4500 0.8380 339.9068 22.5276 358.9927 354.8705 59.4853 44.6231 6.4660 338.4251 354.2319 29.7662 275.9483 353.2376 18.8263 2.6064 358.9351 357.0861 359.2242 9.9076 357.2597 356.6104 351.6799 22.1529 0.5621 352.3057 0.2290 358.6576 19.9715 9.4710 357.0106 344.3806 336.9268 
-3.2440 88.5764 188.8479 2.3576 0.1052 175.3117 2.0231 359.3886 358.0269 358.9696 10.3340 358.1101 359.7708 343.9840 1.1483 3.9138 10.9430 0.7978 338.8355 358.4741 8.1392 300.0954 29.1012 356.9576 14.8964 354.8611 322.1352 83.4567 0.8346 339.8509 22.5219 358.9715 354.8986 59.4680 44.6624 6.4874 338.2759 354.1741 29.6860 276.1131 352.9476 18.4248 2.6007 358.9130 357.0623 359.2156 9.9224 357.2665 357.3407 351.7944 22.2857 0.5513 352.2970 0.2420 358.6638 19.9643 9.4624 357.0083 344.3628 336.9278 
-3.2498 88.5775 188.8346 2.3530 0.0947 175.3209 2.0049 359.3909 358.0296 358.9828 10.3422 358.1115 359.7023 343.9386 1.1047 3.9536 11.0166 0.7566 338.8365 358.4908 8.1475 300.0966 29.0537 356.9641 14.8695 354.8892 322.1386 83.4527 0.8343 339.8192 22.5174 358.9816 354.9171 59.4303 44.6603 6.5323 338.4415 354.2157 29.8487 275.8808 353.3199 19.0128 2.5958 358.9015 357.0375 359.2023 9.9393 357.2647 356.6950 351.6587 22.1899 0.5397 352.3047 0.2547 358.6724 19.9519 9.4547 357.0103 344.3451 336.9156 
-3.2547 88.5785 188.8230 2.3496 0.0783 175.3395 1.9821 359.3956 358.0329 358.9983 10.3381 358.1134 359.6060 343.8863 1.0403 4.0397 11.1097 0.6936 338.8421 358.4842 8.1334 300.0835 28.9723 356.9984 14.8516 354.8833 322.0998 83.4074 0.8459 339.7205 22.5156 358.9791 354.9265 59.3958 44.6926 6.5770 338.4452 354.1984 29.8835 275.7514 353.4083 19.0862 2.5947 358.8724 357.0023 359.1796 9.9664 357.2905 357.2809 351.7244 22.2947 0.5294 352.3099 0.2634 358.6838 19.9312 9.4241 357.0162 344.3311 336.9178 
-3.2632 88.5802 188.8114 2.3390 0.0630 175.3554 1.9596 359.4054 358.0409 359.0001 10.3279 358.1219 359.5519 343.8636 0.9937 4.0912 11.1561 0.6490 338.8495 358.4822 8.1000 300.0631 28.8215 357.0554 14.7781 354.9081 322.0543 83.3943 0.8422 339.6010 22.5203 358.9930 354.9359 59.3468 44.7192 6.6309 338.4466 354.1861 29.9078 275.7938 353.3784 19.0903 2.5857 358.8592 356.9974 359.1687 9.9705 357.2433 356.8581 351.6357 22.2485 0.5074 352.3150 0.2665 358.6942 19.9093 9.4215 356.9541 344.3335 336.8998 
-3.2720 88.5821 188.7983 2.3263 0.0463 175.3713 1.9341 359.4189 358.0493 359.0023 10.3052 358.1303 359.4815 343.8443 0.9368 4.1475 11.2115 0.5949 338.8531 358.4846 8.0681 300.0452 28.6861 357.1181 14.7108 354.9202 321.9945 83.3196 0.8856 339.4591 22.5253 358.9857 354.9321 59.2910 44.7861 6.6971 338.4255 354.1703 29.9249 275.6943 353.4597 19.0995 2.5722 358.8205 356.9650 359.1597 10.0299 357.2064 357.2362 351.6696 22.3420 0.4820 352.3184 0.2792 358.7113 19.8943 9.4023 357.0355 344.2940 336.9142 
-3.2831 88.5848 188.7869 2.3115 0.0242 175.3903 1.9091 359.4274 358.0570 359.0030 10.2944 358.1377 359.3972 343.7989 0.8781 4.2301 11.2846 0.5353 338.8559 358.4839 8.0504 300.0355 28.5831 357.1495 14.6313 354.9323 321.9747 83.4451 0.8540 339.4047 22.5332 358.9858 354.9277 59.2096 44.8322 6.7865 338.4447 354.1749 29.9372 275.6407 353.4763 19.1110 2.5626 358.7875 356.9452 359.1323 10.0543 357.1839 356.9673 351.5957 22.3220 0.4509 352.3138 0.2831 358.7270 19.8857 9.4059 357.1183 344.2444 336.9125 
-3.2969 88.5874 188.7776 2.2956 359.9981 175.4169 1.8984 359.4455 358.0504 358.9846 10.2667 358.1329 359.2901 343.7471 0.8128 4.3401 11.3761 0.4701 338.8637 358.5005 8.0395 300.0295 28.4612 357.1717 14.5285 354.9713 321.9775 83.5527 0.7902 339.3108 22.5513 358.9870 354.9224 59.1027 44.8740 6.8859 338.4447 354.1693 29.9374 275.9026 353.2657 19.1074 2.5507 358.7281 356.9330 359.0910 10.1064 357.1927 357.2944 351.6389 22.3997 0.4149 352.3101 0.2983 358.7542 19.8643 9.3600 357.2213 344.1698 336.8979 
-3.3152 88.5899 188.7653 2.2719 359.9661 175.4527 1.8863 359.4586 358.0414 358.9581 10.2255 358.1262 359.1815 343.7205 0.7500 4.4545 11.4557 0.4109 338.8743 358.4931 8.0195 299.9920 28.3178 357.2464 14.4864 354.9843 321.9095 83.5636 0.7871 339.2049 22.5701 358.9945 354.9323 59.0034 44.9284 6.9687 338.5068 354.1694 29.9990 275.6264 353.5315 19.1840 2.5225 358.6594 356.8917 359.0896 10.1841 357.1009 357.1389 351.5488 22.4185 0.3648 352.3012 0.3043 358.7762 19.8766 9.2847 357.2870 344.0731 336.9341 
-3.3375 88.5918 188.7502 2.2447 359.9405 175.4901 1.8833 359.4806 358.0247 358.9167 10.1780 358.1129 359.0230 343.7090 0.6597 4.6085 11.5088 0.3319 338.8778 358.4938 8.0223 299.9760 28.2171 357.3061 14.4559 354.9914 321.8509 83.5287 0.8231 339.1547 22.5903 358.9937 354.9734 58.9439 44.9771 7.0021 338.4869 354.1504 30.0383 275.7085 353.4932 19.2058 2.4869 358.6056 356.8626 359.0779 10.2425 357.0559 357.2378 351.5137 22.4583 0.3063 352.3026 0.3089 358.8089 19.8538 9.2272 357.2936 344.0632 337.0037 
-3.3601 88.5951 188.7404 2.2193 359.8957 175.5311 1.8571 359.4848 358.0174 358.9188 10.1493 358.1063 358.8327 343.5995 0.5777 4.7803 11.6907 0.2360 338.8674 358.5012 8.0460 299.9712 28.1920 357.3224 14.4618 354.9743 321.8225 83.5011 0.8393 339.1957 22.5853 359.0067 355.0109 58.8692 45.0158 7.0693 338.4920 354.1467 30.0632 275.7604 353.4498 19.2307 2.4581 358.5170 356.8167 359.0510 10.3180 357.0308 357.2395 351.4631 22.4921 0.2510 352.2827 0.3298 358.8462 19.8346 9.1532 357.5729 343.8577 336.9340 
-3.3881 88.5976 188.7292 2.1911 359.8488 175.5798 1.8201 359.4875 358.0248 358.9223 10.1215 358.1132 358.6529 343.4785 0.4669 4.9260 11.8946 0.1341 338.8531 358.4907 8.1088 299.9918 28.3737 357.2858 14.5911 354.9130 321.8852 83.4607 0.7533 339.3302 22.5826 358.9949 355.0056 58.7315 45.1155 7.1976 338.4669 354.1454 30.1076 275.7269 353.5287 19.2116 2.4223 358.4296 356.7752 359.0300 10.3893 356.9790 357.2023 351.4022 22.5246 0.1914 352.2632 0.3372 358.8583 19.7788 9.2631 357.8886 343.6024 336.6651 
-3.4198 88.6011 188.7135 2.1626 359.8027 175.6270 1.7704 359.4880 358.0512 358.9316 10.0995 358.1381 358.4764 343.3263 0.3381 5.0790 12.1471 359.9990 338.8443 358.4808 8.0786 299.9817 28.2837 357.3508 14.5547 354.9465 321.8417 83.5402 0.7218 339.3519 22.5842 358.9823 354.9711 58.5867 45.1722 7.3308 338.5244 354.1430 30.2076 275.4811 353.9070 19.2820 2.3837 358.3233 356.8640 359.0328 10.5064 356.7856 357.3851 351.3569 22.5967 0.1283 352.2470 0.3723 358.8824 19.7287 9.3304 357.9189 343.5345 336.5375 
-3.4564 88.6040 188.6943 2.1311 359.7636 175.6723 1.7317 359.4948 358.0663 358.9303 10.0748 358.1537 358.2792 343.2099 0.2167 5.2727 12.3529 359.8770 338.8242 358.4814 8.1271 300.0214 28.5125 357.3340 14.7191 354.8566 321.7872 83.5321 0.8921 339.8526 22.5904 358.9896 354.9453 58.4316 45.2471 7.4705 338.5126 354.1408 30.1991 275.7207 353.6247 19.2827 2.3360 358.2437 356.7992 359.0072 10.5879 356.7745 357.2666 351.2736 22.6069 0.0615 352.2271 0.3859 358.8216 19.7798 9.6969 358.1888 343.5854 336.3846 
